<?xml version="1.0" encoding="utf-8"?>
<!-- Generator: Adobe Illustrator 15.0.0, SVG Export Plug-In . SVG Version: 6.00 Build 0)  -->
<!DOCTYPE svg PUBLIC "-//W3C//DTD SVG 1.1//EN" "http://www.w3.org/Graphics/SVG/1.1/DTD/svg11.dtd">
<svg version="1.1" xmlns="http://www.w3.org/2000/svg" xmlns:xlink="http://www.w3.org/1999/xlink" x="0px" y="0px" width="548px"
	 height="250px" viewBox="0 0 548 250" enable-background="new 0 0 548 250" xml:space="preserve">
<g id="Layer_1">
</g>
<g id="Layer_3">
</g>
<g id="Layer_2">
	<g>
		<rect fill="#FFFFFF" width="548" height="250"/>
		<g>
			<path d="M53.301,105.338c0,0,102.213,12.025,206.156,14.956c98.594,2.781,207.5,3.343,207.5,3.343l4.335,2.754
				c0,0-150.396-0.05-210.574-1.99c-72.761-2.346-197.254-13.07-197.254-13.07L53.301,105.338z"/>
			<polygon points="76.205,118.312 106.062,135.544 129.223,135.544 102.341,120.233 			"/>
			<polygon points="130.639,122.242 160.074,123.832 182.742,136.805 159.295,137.304 182.742,151.018 160.741,152.507 
				191.076,169.205 168.725,172.163 135.663,153.062 159.408,151.887 133.141,137.114 157.09,136.716 			"/>
			<polygon points="189.212,125.508 215.813,126.314 236.281,137.922 212.842,138.183 232.614,149.715 210.213,150.956 
				236.281,165.42 211.613,166.536 185.611,151.392 208.68,150.583 185.611,137.61 211.266,137.89 			"/>
			<polygon points="245.283,127.805 269.537,127.92 286.817,137.426 264.95,138.479 282.018,148.971 260.149,149.653 
				280.419,162.255 257.418,162.876 235.482,150.275 259.15,149.902 239.148,138.667 262.617,138.667 			"/>
			<polygon points="296.754,127.932 313.621,137.677 289.485,138.174 306.554,148.043 283.752,148.415 301.98,159.298 
				325.488,159.339 307.753,148.043 331.288,147.855 314.555,137.863 338.622,137.738 321.021,127.87 			"/>
			<polygon points="336.158,149.285 353.425,159.216 378.227,159.153 360.625,148.787 383.693,148.726 368.625,138.98 
				391.561,138.857 375.493,129.174 351.292,129.484 366.892,138.98 342.824,138.857 359.625,149.16 			"/>
			<polygon points="388.096,149.16 403.297,158.16 426.697,158.16 412.431,148.973 435.631,148.85 420.697,139.228 443.232,138.794 
				427.973,129.679 403.896,129.918 418.771,139.153 394.829,139.104 410.964,148.979 			"/>
			<polygon points="456.102,129.855 476.504,129.74 491.482,139.055 471.514,139.009 484.17,148.042 462.935,148.154 
				478.103,157.912 453.568,157.725 438.101,148.414 461.235,148.104 446.234,139.104 470.859,139.062 			"/>
			<polygon points="506.919,148.355 522.302,157.679 500.447,157.725 484.979,148.414 			"/>
			<path display="none" d="M149.02,187.056c0,0,27.129-9.719,111.602-18.148c88.901-8.871,222.573-8.12,222.573-8.12l5.628,2.889
				c0,0-144.073-0.044-225.289,10.425c-64.724,8.343-96.859,22.845-96.859,22.845L149.02,187.056z"/>
			<path d="M181.416,179.319c0,0,43.477-6.646,79.205-10.412c94.343-9.941,265.774-8.525,265.774-8.525l5.006,3.12
				c0,0-176.161-0.682-267.868,10.599c-30.212,3.717-68.447,13.347-68.447,13.347L181.416,179.319z"/>
		</g>
		<g>
			<g>
				<path fill="#0365A0" d="M158.082,87.813c0,5.769-4.719,10.488-10.488,10.488h-33.807c-5.77,0-10.488-4.72-10.488-10.488v-20.95
					c0-5.769,4.719-10.488,10.488-10.488h33.807c5.77,0,10.488,4.72,10.488,10.488V87.813z"/>
			</g>
			<g>
				<path fill="#0365A0" d="M361.964,88.349c0,5.474-4.479,9.953-9.952,9.953h-29.428c-5.475,0-9.953-4.479-9.953-9.953V66.328
					c0-5.474,4.479-9.953,9.953-9.953h29.428c5.474,0,9.952,4.479,9.952,9.953V88.349z"/>
			</g>
			<g>
				<path fill="#0365A0" d="M465.964,88.349c0,5.474-4.479,9.953-9.952,9.953h-29.428c-5.475,0-9.953-4.479-9.953-9.953V66.328
					c0-5.474,4.479-9.953,9.953-9.953h29.428c5.474,0,9.952,4.479,9.952,9.953V88.349z"/>
			</g>
			<g>
				<path fill="#0365A0" d="M212.211,76.559c0,6.04-4.941,10.98-10.98,10.98h-24.422c-6.039,0-10.98-4.941-10.98-10.98v-9.203
					c0-6.04,4.941-10.98,10.98-10.98h24.422c6.039,0,10.98,4.941,10.98,10.98V76.559z"/>
			</g>
			<g>
				<path fill="#FFFFFF" d="M199.745,73.445c0,2.338-1.913,4.252-4.252,4.252h-20.036c-2.338,0-4.252-1.914-4.252-4.252v-2.977
					c0-2.338,1.914-4.252,4.252-4.252h20.036c2.339,0,4.252,1.914,4.252,4.252V73.445z"/>
			</g>
			<rect x="164.732" y="56.375" fill="#0365A0" width="12.139" height="41.927"/>
			<polygon fill="#0365A0" points="100.018,56.375 82.393,56.375 70.254,56.375 53.434,56.375 53.434,66.216 70.254,66.216 
				70.254,98.302 82.393,98.302 82.393,66.216 100.018,66.216 			"/>
			<rect x="217.209" y="78.352" fill="#0365A0" width="19.828" height="4.049"/>
			<polygon fill="#0365A0" points="412.455,56.375 391.017,56.375 386.969,56.375 365.905,56.375 365.905,60.452 386.969,60.452 
				386.969,98.302 391.017,98.302 391.017,60.452 412.455,60.452 			"/>
			<polygon fill="#0365A0" points="304.582,56.375 301.742,56.375 296.438,56.375 296.438,56.375 296.429,56.375 274.707,91.79 
				253.807,56.375 253.799,56.375 253.799,56.375 248.017,56.375 244.809,56.375 243.969,56.375 243.969,98.302 248.017,98.302 
				248.017,59.697 251.053,59.697 272.551,98.302 272.547,98.302 273.828,98.302 275.488,98.302 276.507,98.302 299.155,59.697 
				301.742,59.697 301.742,98.302 305.79,98.302 305.79,56.375 			"/>
		</g>
		<g>
			<g>
				<path fill="#FFFFFF" d="M145.944,81.785c0,3.345-2.737,6.083-6.083,6.083h-18.343c-3.345,0-6.083-2.737-6.083-6.083v-9.813
					c0-3.345,2.738-6.083,6.083-6.083h18.343c3.346,0,6.083,2.737,6.083,6.083V81.785z"/>
			</g>
			<g>
				<path fill="#FFFFFF" d="M357.374,85.624c0,4.417-3.614,8.031-8.031,8.031h-24.667c-4.417,0-8.031-3.614-8.031-8.031V68.619
					c0-4.417,3.614-8.031,8.031-8.031h24.667c4.417,0,8.031,3.614,8.031,8.031V85.624z"/>
			</g>
			<g>
				<path fill="#FFFFFF" d="M461.595,85.624c0,4.417-3.614,8.031-8.031,8.031h-24.667c-4.417,0-8.031-3.614-8.031-8.031V68.619
					c0-4.417,3.614-8.031,8.031-8.031h24.667c4.417,0,8.031,3.614,8.031,8.031V85.624z"/>
			</g>
		</g>
	</g>
</g>
</svg>
